<svg xmlns="http://www.w3.org/2000/svg" viewBox="0 0 72.74 116.77">
  <!-- Velociraptor raptor logo - white silhouette for use on dark backgrounds -->
  <!-- Green tail/body -->
  <path fill="rgba(255,255,255,0.85)" fill-rule="evenodd" d="m 11.241129,68.99628 c -0.642,-0.5079 -1.3371,-1.2883 -1.853,-2.4346 -3.3528,-7.4492 -4.0445,-9.6367 -0.1933,-10.0333 2.9012,-0.2987 7.2388,-0.1689 10.0873,0.9154 l 0.1046,0.0272 c -2.6379,0.7897 -5.4096,1.4524 -8.2216,1.8756 l -1.51,0.2271 0.2435,1.5069 c 0.005,0.03 0.5383,3.3069 1.3425,7.9157 z m -2.3363,-41.0487 c 0.8668,-0.54 1.4936,0.117 1.4346,0.9978 -0.0315,0.4691 -0.5652,2.131 -2.1838,2.5602 0,0 1.5449,-0.839 1.4757,-2.4466 -0.017,-0.3951 -0.3512,-0.7832 -0.7265,-1.1114 z m 19.5171,-8.8674 c 3.7599,0 6.895,2.6722 7.6105,6.2212 -1.3275,-3.0183 -4.2359,-5.1131 -7.6105,-5.1131 -3.3747,0 -6.2827,2.0948 -7.6105,5.1131 0.7155,-3.549 3.8509,-6.2212 7.6105,-6.2212 z m 0,1.9452 c 3.2136,0 5.8187,2.605 5.8187,5.8186 0,3.2134 -2.6051,5.8184 -5.8187,5.8184 -3.2134,0 -5.8184,-2.605 -5.8184,-5.8184 0,-3.2136 2.605,-5.8186 5.8184,-5.8186 z m -2.6819,34.2323 c 0.1078,-0.9479 0.108,-1.9503 -0.008,-3.4447 -0.1947,-2.5109 -1.5123,-1.3629 -6.0664,-2.8908 -3.8044,-1.277 -12.695,-5.447 -15.3037,-8.3454 -0.5148,-0.5729 -0.8127,-0.9017 -1.2833,-1.501 -0.4368,-0.5559 -0.7248,-0.7217 -1.0167,-1.1565 0.5978,-0.0661 1.1871,-0.1029 1.7671,-0.1145 0.2276,-0.005 0.4535,-0.005 0.678,-0.003 l 1.5381,2.1971 0.5661,-2.0673 c 2.1628,0.2364 4.1445,0.7626 5.8677,1.3278 0.8527,0.2798 1.7322,0.5879 2.6305,0.9014 l -0.3699,2.0472 2.6796,-1.2546 c 1.3884,0.4614 2.8046,0.8937 4.2214,1.2214 l 0.1981,1.9803 2.0112,-1.5644 c 1.559,0.2191 3.1025,0.2624 4.5944,0.0283 l 0.396,2.0004 2.2875,-2.77 c 1.3179,-0.5715 2.5722,-1.4375 3.7333,-2.6816 -7.9937,5.5953 -18.377,-0.6582 -26.3223,-1.9394 -4.9036,-0.7909 -7.0973,-0.3172 -8.07790002,0.2344 -2.19769998,-1.226 4.09720002,-11.0948 5.60730002,-12.9901 2.9355,-3.6842 13.1485,-2.6861 17.0013,-5.8501 4.0238,-3.3075 10.8148,0.6389 13.921,3.4362 2.6538,2.3898 3.4662,6.1401 4.1414,9.5082 0.3679,1.8352 0.7546,3.6876 0.9638,5.5596 0.7282,6.5239 -1.1192,8.7162 -2.6961,11.3374 l -0.007,-0.005 -0.004,0.003 -0.004,-0.003 -0.2775,0.176 -0.523,0.3223 c -0.0241,0.0148 -5.3373,3.331 -12.8438,6.2995 z m 22.6446,56.5514 c -0.2707,0.8912 -0.5326,2.151 -0.726,4.2843 -0.1102,1.2158 5.8003,0.097 10.2116,0.3322 0.3095,0.0168 18.6106,1.0353 14.1775,-0.5349 -0.5922,-0.2097 -7.8302,-3.5135 -9.7558,-4.026 -3.6995,-0.985 -6.3348,-0.0448 -6.5055,-1.1642 -0.2772,-1.815 0.5874,-4.4716 1.8907,-8.2409 -2.4868,2.7386 -5.9051,6.2348 -9.0878,9.1619 z m -17.318,0.6095 c 0.2064,0.8447 0.3991,1.9862 0.5499,3.6748 0.1086,1.2158 -5.7143,0.097 -10.0607,0.3322 -0.3047,0.0168 -18.335,1.0353 -13.9674,-0.5349 0.5836,-0.2097 7.7142,-3.5135 9.6114,-4.026 3.6445,-0.985 6.2408,-0.0448 6.4091,-1.1642 0.2455,-1.631 -0.4172,-3.9416 -1.4862,-7.1286 2.3559,2.5328 5.2994,5.5061 8.0652,8.0496 0.2942,0.2704 0.5876,0.5363 0.8787,0.7971 z M 42.239429,0.80377998 C 67.938329,8.74058 69.712829,34.91088 66.177729,59.10938 c -2.0574,-0.3691 -4.0839,-0.8575 -6.0429,-1.4205 l 0.004,-0.028 c 3.1822,-20.8783 2.3446,-43.1119 -13.2936,-53.096 -0.7963,-0.5083 -6.0055,-3.301 -8.2758,-4.22280002 -0.7554,-0.3067 -0.4059,-0.7594 3.6698,0.4617 z"/>
  <!-- Red raptor body/shield -->
  <path fill="white" fill-rule="evenodd" d="m 39.350329,52.01738 c -3.0387,1.779 -14.1197,7.8993 -26.2247,10.0738 1.0749,6.4774 5.4085,32.0833 7.1583,34.7079 1.2453,1.8678 6.8723,7.926 11.9517,12.5972 3.3092,3.0433 6.2368,5.4397 7.1413,5.4397 v 0.005 h 0.0233 v -0.005 c 0.9045,0 3.8322,-2.3964 7.1413,-5.4397 5.0794,-4.6712 10.7065,-10.7294 11.9517,-12.5972 1.7499,-2.6246 6.0835,-28.2305 7.1584,-34.7079 -12.1051,-2.1745 -23.186,-8.2945 -26.2248,-10.0738 l -0.0382,0.0244 z"/>
  <!-- V marking on body -->
  <path fill="rgba(0,0,0,0.4)" fill-rule="evenodd" d="m 52.132929,70.73968 c -1.554,4.0507 -2.9934,7.7572 -4.3181,11.1203 -0.5607,1.4519 -1.1273,2.8913 -1.7005,4.318 -0.5731,1.4267 -1.1083,2.7513 -1.6049,3.9742 -0.497,1.2228 -0.9428,2.2864 -1.3377,3.1906 -0.3949,0.9046 -0.6942,1.5478 -0.898,1.9299 -0.4329,0.8152 -0.9425,1.3756 -1.5285,1.6815 -0.5859,0.3056 -1.1335,0.4839 -1.6432,0.5349 -0.6367,0.0765 -1.2609,0.0127 -1.8723,-0.1911 l -10.5851,-26.5583 c 0.6114,-0.1018 1.2291,-0.1463 1.8533,-0.1336 0.6242,0.0128 1.2038,0.1146 1.7387,0.3056 0.5349,0.1911 1.0253,0.4842 1.4712,0.879 0.4459,0.3949 0.8087,0.9236 1.0891,1.5857 0.0255,0.1021 0.1465,0.4269 0.3631,0.9746 0.2166,0.5476 0.4839,1.2356 0.8025,2.0633 0.3183,0.828 0.6687,1.7516 1.0508,2.7706 0.3821,1.0191 0.777,2.0509 1.1846,3.0952 0.9425,2.4712 2.0126,5.2353 3.2099,8.2924 1.1719,-3.0571 2.2292,-5.8212 3.1717,-8.2924 0.4077,-1.0443 0.8025,-2.0761 1.1846,-3.0952 0.3821,-1.019 0.7325,-1.9426 1.0508,-2.7706 0.3186,-0.8277 0.586,-1.5157 0.8025,-2.0633 0.2166,-0.5477 0.3504,-0.8725 0.4014,-0.9746 0.2801,-0.6621 0.6432,-1.1908 1.0891,-1.5857 0.4456,-0.3948 0.936,-0.6879 1.4712,-0.879 0.5349,-0.191 1.108,-0.2928 1.7195,-0.3056 0.6114,-0.0127 1.2228,0.0318 1.8343,0.1336 z"/>
</svg>
